<svg id="Layer_1" enable-background="new 0 0 512 512" height="512" viewBox="0 0 512 512" width="512" xmlns="http://www.w3.org/2000/svg"><g><path d="m422.315 50.712v107.21h-31v-76.21h-270.63v76.21h-31v-107.21z" fill="#d2d1d3"/><path d="m422.315 50.712v.01l-31 30.99h-270.63l-31-31z" fill="#b1aeb5"/><path d="m504.505 176.862v265.48c0 10.46-8.49 18.94-18.95 18.94h-459.11c-10.46 0-18.94-8.48-18.94-18.94v-265.48c0-10.46 8.48-18.94 18.94-18.94h459.11c10.46 0 18.95 8.48 18.95 18.94z" fill="#e58e53"/><path d="m504.505 176.862v265.48c0 10.46-8.49 18.94-18.95 18.94h-29.54c10.47 0 18.95-8.48 18.95-18.95v-265.46c0-10.47-8.48-18.95-18.95-18.95h29.54c10.46 0 18.95 8.48 18.95 18.94z" fill="#dd5824"/><path d="m206.975 259.342h98.05v67.47h-98.05z" fill="#10e881"/><path d="m206.975 393.812h98.05v67.47h-98.05z" fill="#ff6536"/><path d="m277.925 259.342h27.1v67.47h-27.1z" fill="#00c18e"/><path d="m277.925 393.812h27.1v67.47h-27.1z" fill="#f71d00"/><path d="m206.971 326.816h98.057v67h-98.057z" fill="#f9ef63"/><path d="m277.925 326.812h27.1v67h-27.1z" fill="#f4dd45" transform="matrix(-1 0 0 -1 582.95 720.625)"/><g><path d="m172.287 360.786c0 35.9-29.11 65-65 65-4.1 0-8.11-.38-12-1.11-30.17-5.62-53-32.09-53-63.89 0-31.79 22.83-58.26 53-63.89 3.89-.73 7.9-1.11 12-1.11 35.891 0 65 29.11 65 65z" fill="#504e54"/><path d="m172.287 360.786c0 35.9-29.11 65-65 65-4.1 0-8.11-.38-12-1.11 30.16-5.63 53-32.09 53-63.89 0-31.79-22.84-58.26-53-63.89 3.89-.73 7.9-1.11 12-1.11 35.891 0 65 29.11 65 65z" fill="#413a4c"/><circle cx="107.407" cy="360.791" fill="#69676d" r="17.379"/></g><g><path d="m469.717 361.428c0 35.9-29.11 65-65 65-4.1 0-8.11-.38-12-1.11-30.17-5.62-53-32.09-53-63.89 0-31.79 22.83-58.26 53-63.89 3.89-.73 7.9-1.11 12-1.11 35.89 0 65 29.111 65 65z" fill="#504e54"/><path d="m469.717 361.428c0 35.9-29.11 65-65 65-4.1 0-8.11-.38-12-1.11 30.16-5.63 53-32.09 53-63.89 0-31.79-22.84-58.26-53-63.89 3.89-.73 7.9-1.11 12-1.11 35.89 0 65 29.111 65 65z" fill="#413a4c"/><circle cx="404.837" cy="361.433" fill="#69676d" r="17.379"/></g><path d="m504.505 176.862v82.48h-497v-82.48c0-10.46 8.48-18.94 18.94-18.94h459.11c10.46 0 18.95 8.48 18.95 18.94z" fill="#504e54"/><path d="m504.5 176.871v82.48h-29.53v-101.43h10.58c10.47 0 18.95 8.48 18.95 18.95z" fill="#413a4c"/><g><circle cx="454.393" cy="208.77" fill="#ff6536" r="20.576"/><circle cx="383.576" cy="208.77" fill="#d2d1d3" r="20.576"/><path d="m127.446 188.194h204.554v41.152h-204.554z" fill="#80fcff"/><path d="m307.318 188.194h24.682v41.152h-24.682z" fill="#50deff"/></g></g><g><path d="m504.5 391.162c4.142 0 7.5-3.357 7.5-7.5v-206.796c0-14.583-11.864-26.446-26.446-26.446h-55.738v-99.706c0-4.143-3.358-7.5-7.5-7.5h-332.632c-4.142 0-7.5 3.357-7.5 7.5v99.706h-7.619c-4.142 0-7.5 3.357-7.5 7.5s3.358 7.5 7.5 7.5h410.988c6.312 0 11.446 5.135 11.446 11.446v74.979h-481.999v-74.979c0-6.312 5.135-11.446 11.446-11.446h12.904c4.142 0 7.5-3.357 7.5-7.5s-3.358-7.5-7.5-7.5h-12.904c-14.582 0-26.446 11.863-26.446 26.446v265.474c0 14.582 11.864 26.446 26.446 26.446h459.107c14.583 0 26.446-11.864 26.446-26.446v-24.154c0-4.143-3.358-7.5-7.5-7.5s-7.5 3.357-7.5 7.5v24.154c0 6.312-5.135 11.446-11.446 11.446h-173.024v-186.94h184.471v116.816c0 4.143 3.358 7.5 7.5 7.5zm-120.684-240.742h-255.632v-61.206h255.632zm4.393-76.206h-264.418l-16-16h296.418zm-291.025 76.206v-81.599l16 16v65.599zm301.632 0v-65.599l16-16v81.599zm-101.287 235.895h-83.058v-52h83.058zm-282.529 56.025v-175.494h184.471v186.94h-173.025c-6.311 0-11.446-5.135-11.446-11.446zm199.471 11.446v-52.471h83.058v52.471zm83.058-134.471h-83.058v-52.47h83.058z"/><path d="m482.47 208.77c0-15.481-12.595-28.076-28.076-28.076s-28.076 12.595-28.076 28.076 12.595 28.076 28.076 28.076 28.076-12.595 28.076-28.076zm-41.153 0c0-7.21 5.866-13.076 13.076-13.076s13.076 5.866 13.076 13.076-5.866 13.076-13.076 13.076-13.076-5.867-13.076-13.076z"/><path d="m411.652 208.77c0-15.481-12.595-28.076-28.076-28.076s-28.076 12.594-28.076 28.076 12.595 28.076 28.076 28.076 28.076-12.595 28.076-28.076zm-41.152 0c0-7.21 5.866-13.076 13.076-13.076s13.076 5.866 13.076 13.076-5.866 13.076-13.076 13.076-13.076-5.867-13.076-13.076z"/><path d="m29.393 188.193v41.152c0 4.143 3.358 7.5 7.5 7.5s7.5-3.357 7.5-7.5v-41.152c0-4.143-3.358-7.5-7.5-7.5s-7.5 3.358-7.5 7.5z"/><path d="m66.893 236.846c4.142 0 7.5-3.357 7.5-7.5v-41.152c0-4.143-3.358-7.5-7.5-7.5s-7.5 3.357-7.5 7.5v41.152c0 4.142 3.358 7.5 7.5 7.5z"/><path d="m103.946 229.346v-41.152c0-4.143-3.358-7.5-7.5-7.5s-7.5 3.357-7.5 7.5v41.152c0 4.143 3.358 7.5 7.5 7.5s7.5-3.358 7.5-7.5z"/><path d="m307.318 221.846c-4.142 0-7.5 3.357-7.5 7.5s3.358 7.5 7.5 7.5h24.682c4.142 0 7.5-3.357 7.5-7.5v-41.152c0-4.143-3.358-7.5-7.5-7.5h-204.554c-4.142 0-7.5 3.357-7.5 7.5v41.152c0 4.143 3.358 7.5 7.5 7.5h145.367c4.142 0 7.5-3.357 7.5-7.5s-3.358-7.5-7.5-7.5h-137.867v-26.152h189.554v26.152z"/><path d="m107.283 288.291c-39.977 0-72.5 32.523-72.5 72.5s32.523 72.5 72.5 72.5 72.5-32.523 72.5-72.5-32.523-72.5-72.5-72.5zm0 130c-31.706 0-57.5-25.794-57.5-57.5s25.794-57.5 57.5-57.5 57.5 25.794 57.5 57.5-25.794 57.5-57.5 57.5z"/><path d="m107.408 335.912c-13.718 0-24.879 11.16-24.879 24.879s11.161 24.879 24.879 24.879 24.878-11.16 24.878-24.879-11.161-24.879-24.878-24.879zm0 34.758c-5.447 0-9.879-4.432-9.879-9.879s4.432-9.879 9.879-9.879 9.878 4.432 9.878 9.879-4.432 9.879-9.878 9.879z"/><path d="m332.217 360.791c0 39.977 32.523 72.5 72.5 72.5s72.5-32.523 72.5-72.5-32.523-72.5-72.5-72.5-72.5 32.523-72.5 72.5zm130 0c0 31.706-25.794 57.5-57.5 57.5s-57.5-25.794-57.5-57.5 25.794-57.5 57.5-57.5 57.5 25.794 57.5 57.5z"/><path d="m379.963 360.791c0 13.719 11.161 24.879 24.878 24.879 13.718 0 24.879-11.16 24.879-24.879s-11.161-24.879-24.879-24.879c-13.717 0-24.878 11.16-24.878 24.879zm24.878-9.879c5.447 0 9.879 4.432 9.879 9.879s-4.432 9.879-9.879 9.879-9.878-4.432-9.878-9.879 4.432-9.879 9.878-9.879z"/></g></svg>